<?xml version="1.0" encoding="UTF-8"?>
<svg xmlns="http://www.w3.org/2000/svg" xmlns:xlink="http://www.w3.org/1999/xlink" width="96px" height="96px" viewBox="0 0 96 96" version="1.1">
<g id="surface1">
<path style=" stroke:none;fill-rule:evenodd;fill:rgb(9.411765%,8.627451%,8.627451%);fill-opacity:1;" d="M 48 1.132812 C 30.378906 1.132812 16.089844 15.417969 16.089844 33.042969 C 16.089844 47.140625 25.234375 59.101562 37.914062 63.320312 C 39.507812 63.617188 40.09375 62.628906 40.09375 61.785156 C 40.09375 61.023438 40.0625 58.511719 40.050781 55.84375 C 31.171875 57.773438 29.296875 52.078125 29.296875 52.078125 C 27.847656 48.390625 25.753906 47.410156 25.753906 47.410156 C 22.859375 45.429688 25.972656 45.472656 25.972656 45.472656 C 29.179688 45.695312 30.867188 48.757812 30.867188 48.757812 C 33.710938 53.636719 38.332031 52.226562 40.152344 51.410156 C 40.4375 49.347656 41.265625 47.941406 42.175781 47.144531 C 35.089844 46.339844 27.640625 43.601562 27.640625 31.375 C 27.640625 27.890625 28.886719 25.042969 30.925781 22.808594 C 30.59375 22.003906 29.503906 18.757812 31.234375 14.363281 C 31.234375 14.363281 33.914062 13.507812 40.011719 17.636719 C 42.558594 16.929688 45.289062 16.574219 48 16.5625 C 50.710938 16.574219 53.441406 16.929688 55.992188 17.636719 C 62.082031 13.507812 64.757812 14.367188 64.757812 14.367188 C 66.496094 18.761719 65.402344 22.003906 65.070312 22.808594 C 67.117188 25.042969 68.355469 27.890625 68.355469 31.375 C 68.355469 43.628906 60.890625 46.328125 53.785156 47.117188 C 54.929688 48.109375 55.949219 50.050781 55.949219 53.027344 C 55.949219 57.296875 55.914062 60.734375 55.914062 61.785156 C 55.914062 62.632812 56.488281 63.628906 58.105469 63.3125 C 70.777344 59.089844 79.90625 47.132812 79.90625 33.039062 C 79.910156 15.421875 65.621094 1.132812 48 1.132812 Z M 48 1.132812 "/>
<path style=" stroke:none;fill-rule:nonzero;fill:rgb(9.411765%,8.627451%,8.627451%);fill-opacity:1;" d="M 28.175781 46.945312 C 28.105469 47.105469 27.855469 47.152344 27.628906 47.042969 C 27.398438 46.941406 27.269531 46.722656 27.34375 46.566406 C 27.410156 46.402344 27.660156 46.355469 27.894531 46.464844 C 28.125 46.570312 28.257812 46.789062 28.179688 46.945312 Z M 29.46875 48.390625 C 29.316406 48.53125 29.019531 48.464844 28.816406 48.242188 C 28.609375 48.019531 28.570312 47.722656 28.722656 47.578125 C 28.878906 47.4375 29.167969 47.503906 29.375 47.726562 C 29.585938 47.953125 29.628906 48.246094 29.46875 48.390625 Z M 30.726562 50.226562 C 30.53125 50.363281 30.210938 50.234375 30.015625 49.949219 C 29.820312 49.667969 29.820312 49.328125 30.019531 49.191406 C 30.214844 49.054688 30.53125 49.175781 30.730469 49.457031 C 30.929688 49.746094 30.929688 50.089844 30.726562 50.226562 Z M 32.449219 52.003906 C 32.277344 52.195312 31.902344 52.144531 31.632812 51.878906 C 31.351562 51.621094 31.273438 51.257812 31.449219 51.066406 C 31.628906 50.871094 32 50.925781 32.277344 51.1875 C 32.554688 51.441406 32.636719 51.808594 32.449219 52 Z M 34.828125 53.03125 C 34.753906 53.28125 34.394531 53.394531 34.03125 53.289062 C 33.671875 53.179688 33.433594 52.886719 33.507812 52.636719 C 33.582031 52.382812 33.945312 52.265625 34.308594 52.378906 C 34.667969 52.488281 34.902344 52.777344 34.828125 53.03125 Z M 37.441406 53.222656 C 37.449219 53.484375 37.144531 53.707031 36.761719 53.710938 C 36.382812 53.71875 36.074219 53.503906 36.070312 53.246094 C 36.070312 52.980469 36.367188 52.765625 36.75 52.757812 C 37.128906 52.75 37.441406 52.960938 37.441406 53.222656 Z M 39.871094 52.808594 C 39.914062 53.066406 39.652344 53.332031 39.273438 53.402344 C 38.90625 53.46875 38.5625 53.3125 38.515625 53.054688 C 38.46875 52.792969 38.738281 52.53125 39.105469 52.460938 C 39.484375 52.394531 39.820312 52.550781 39.871094 52.8125 Z M 39.871094 52.808594 "/>
<path style=" stroke:none;fill-rule:nonzero;fill:rgb(6.27451%,5.490196%,5.882353%);fill-opacity:1;" d="M 18.640625 81.226562 L 10.617188 81.226562 C 10.410156 81.226562 10.242188 81.394531 10.242188 81.601562 L 10.242188 85.527344 C 10.242188 85.734375 10.410156 85.902344 10.617188 85.902344 L 13.746094 85.902344 L 13.746094 90.777344 C 13.746094 90.777344 13.042969 91.015625 11.097656 91.015625 C 8.804688 91.015625 5.601562 90.179688 5.601562 83.132812 C 5.601562 76.089844 8.9375 75.160156 12.070312 75.160156 C 14.78125 75.160156 15.949219 75.640625 16.691406 75.871094 C 16.925781 75.941406 17.144531 75.707031 17.144531 75.5 L 18.039062 71.710938 C 18.039062 71.59375 17.988281 71.484375 17.894531 71.417969 C 17.589844 71.199219 15.75 70.171875 11.101562 70.171875 C 5.742188 70.171875 0.246094 72.449219 0.246094 83.410156 C 0.246094 94.367188 6.539062 96 11.839844 96 C 16.230469 96 18.894531 94.121094 18.894531 94.121094 C 19.003906 94.0625 19.015625 93.910156 19.015625 93.835938 L 19.015625 81.601562 C 19.015625 81.394531 18.847656 81.226562 18.640625 81.226562 Z M 59.628906 71.109375 L 55.109375 71.109375 C 55.011719 71.109375 54.914062 71.148438 54.84375 71.21875 C 54.773438 71.289062 54.734375 71.386719 54.738281 71.484375 L 54.738281 80.21875 L 47.695312 80.21875 L 47.695312 71.484375 C 47.695312 71.277344 47.527344 71.109375 47.320312 71.109375 L 42.800781 71.109375 C 42.703125 71.109375 42.609375 71.148438 42.539062 71.21875 C 42.46875 71.289062 42.429688 71.386719 42.429688 71.484375 L 42.429688 95.132812 C 42.429688 95.339844 42.597656 95.507812 42.800781 95.507812 L 47.320312 95.507812 C 47.421875 95.507812 47.515625 95.46875 47.585938 95.398438 C 47.65625 95.328125 47.695312 95.230469 47.695312 95.132812 L 47.695312 85.015625 L 54.738281 85.015625 L 54.726562 95.132812 C 54.726562 95.339844 54.894531 95.507812 55.101562 95.507812 L 59.628906 95.507812 C 59.730469 95.507812 59.824219 95.46875 59.894531 95.398438 C 59.964844 95.328125 60.003906 95.230469 60.003906 95.132812 L 60.003906 71.484375 C 60.003906 71.277344 59.835938 71.109375 59.628906 71.109375 Z M 24.253906 71.644531 C 22.648438 71.644531 21.34375 72.960938 21.34375 74.585938 C 21.34375 76.210938 22.648438 77.53125 24.253906 77.53125 C 25.863281 77.53125 27.167969 76.210938 27.167969 74.585938 C 27.167969 72.960938 25.863281 71.644531 24.253906 71.644531 Z M 26.472656 78.851562 L 21.96875 78.851562 C 21.761719 78.851562 21.574219 79.0625 21.574219 79.269531 L 21.574219 94.910156 C 21.574219 95.371094 21.863281 95.507812 22.234375 95.507812 L 26.289062 95.507812 C 26.738281 95.507812 26.84375 95.289062 26.84375 94.902344 L 26.84375 79.226562 C 26.847656 79.019531 26.679688 78.851562 26.472656 78.851562 Z M 77.175781 78.886719 L 72.691406 78.886719 C 72.484375 78.886719 72.316406 79.058594 72.320312 79.265625 L 72.320312 90.859375 C 72.320312 90.859375 71.179688 91.691406 69.5625 91.691406 C 67.945312 91.691406 67.519531 90.960938 67.519531 89.375 L 67.519531 79.265625 C 67.519531 79.164062 67.480469 79.070312 67.410156 79 C 67.339844 78.925781 67.246094 78.886719 67.144531 78.886719 L 62.59375 78.886719 C 62.386719 78.886719 62.21875 79.058594 62.222656 79.265625 L 62.222656 90.140625 C 62.222656 94.84375 64.84375 95.992188 68.445312 95.992188 C 71.40625 95.992188 73.789062 94.359375 73.789062 94.359375 C 73.789062 94.359375 73.902344 95.222656 73.957031 95.324219 C 74.007812 95.425781 74.140625 95.527344 74.285156 95.527344 L 77.179688 95.515625 C 77.386719 95.515625 77.554688 95.34375 77.554688 95.136719 L 77.554688 79.261719 C 77.550781 79.054688 77.386719 78.886719 77.179688 78.886719 Z M 89.433594 78.355469 C 86.886719 78.355469 85.152344 79.492188 85.152344 79.492188 L 85.152344 71.484375 C 85.15625 71.277344 84.988281 71.109375 84.78125 71.105469 L 80.25 71.105469 C 80.148438 71.105469 80.054688 71.148438 79.984375 71.21875 C 79.914062 71.289062 79.875 71.382812 79.875 71.484375 L 79.875 95.132812 C 79.875 95.230469 79.914062 95.328125 79.984375 95.398438 C 80.054688 95.46875 80.148438 95.507812 80.25 95.507812 L 83.394531 95.507812 C 83.535156 95.507812 83.644531 95.4375 83.722656 95.308594 C 83.800781 95.179688 83.914062 94.21875 83.914062 94.21875 C 83.914062 94.21875 85.765625 95.972656 89.273438 95.972656 C 93.390625 95.972656 95.753906 93.882812 95.753906 86.597656 C 95.753906 79.308594 91.980469 78.355469 89.433594 78.355469 Z M 87.664062 91.679688 C 86.109375 91.632812 85.054688 90.925781 85.054688 90.925781 L 85.054688 83.4375 C 85.054688 83.4375 86.09375 82.800781 87.371094 82.683594 C 88.984375 82.539062 90.542969 83.027344 90.542969 86.878906 C 90.542969 90.941406 89.839844 91.742188 87.664062 91.679688 Z M 39.894531 91.589844 C 39.699219 91.589844 39.195312 91.671875 38.671875 91.671875 C 37.007812 91.671875 36.445312 90.894531 36.445312 89.894531 L 36.445312 83.246094 L 39.835938 83.246094 C 39.933594 83.246094 40.03125 83.203125 40.101562 83.132812 C 40.171875 83.0625 40.210938 82.964844 40.210938 82.867188 L 40.210938 79.226562 C 40.210938 79.125 40.171875 79.027344 40.101562 78.957031 C 40.03125 78.886719 39.933594 78.847656 39.835938 78.847656 L 36.445312 78.847656 L 36.4375 74.371094 C 36.4375 74.199219 36.351562 74.117188 36.15625 74.117188 L 31.535156 74.117188 C 31.355469 74.117188 31.261719 74.195312 31.261719 74.367188 L 31.261719 78.996094 C 31.261719 78.996094 28.945312 79.554688 28.789062 79.597656 C 28.628906 79.644531 28.519531 79.792969 28.519531 79.957031 L 28.519531 82.867188 C 28.515625 83.074219 28.683594 83.242188 28.890625 83.242188 L 31.261719 83.242188 L 31.261719 90.238281 C 31.261719 95.4375 34.90625 95.945312 37.363281 95.945312 C 38.488281 95.945312 39.832031 95.585938 40.054688 95.503906 C 40.191406 95.453125 40.265625 95.316406 40.265625 95.164062 L 40.269531 91.964844 C 40.265625 91.757812 40.101562 91.59375 39.894531 91.589844 Z M 39.894531 91.589844 "/>
</g>
</svg>
